<svg width="32" height="32" viewBox="0 0 32 32" fill="none" xmlns="http://www.w3.org/2000/svg">
<path d="M12.586 27.414L2.58599 17.414C1.80499 16.633 1.80499 15.367 2.58599 14.586L12.586 4.58599C13.367 3.80499 14.633 3.80499 15.414 4.58599C16.195 5.36699 16.195 6.63299 15.414 7.41399L8.82799 14H28C29.105 14 30 14.895 30 16C30 17.105 29.105 18 28 18H8.82799L15.414 24.586C15.804 24.976 16 25.488 16 26C16 26.512 15.805 27.024 15.414 27.414C14.633 28.195 13.367 28.195 12.586 27.414Z" fill="black"/>
</svg>
