<svg width="32" height="32" viewBox="0 0 32 32" fill="none" xmlns="http://www.w3.org/2000/svg">

<path d="M31.708 25.708L22 16L31.708 6.29199C31.813 6.18699 31.888 6.06499 31.937 5.93499C32.07 5.57899 31.994 5.16399 31.708 4.87799L27.122 0.291987C26.836 0.00598732 26.42 -0.0690127 26.065 0.0629873C25.935 0.110987 25.813 0.186987 25.708 0.290987L16 9.99899L6.29199 0.290987C6.18699 0.186987 6.06499 0.110987 5.93499 0.0629873C5.57899 -0.0700127 5.16399 0.00598732 4.87799 0.291987L0.291987 4.87799C0.00598732 5.16399 -0.0690127 5.57999 0.0629873 5.93499C0.111987 6.06499 0.186987 6.18699 0.291987 6.29199L9.99999 16L0.291987 25.708C0.187987 25.813 0.111987 25.935 0.0629873 26.065C-0.0700127 26.42 0.00598732 26.836 0.291987 27.122L4.87799 31.708C5.16399 31.994 5.57999 32.069 5.93499 31.937C6.06499 31.888 6.18699 31.813 6.29199 31.708L16 22L25.708 31.708C25.813 31.813 25.935 31.888 26.065 31.937C26.421 32.07 26.836 31.994 27.122 31.708L31.708 27.122C31.994 26.836 32.07 26.42 31.937 26.065C31.888 25.935 31.813 25.813 31.708 25.708Z" />


</svg>
